<?xml version="1.0" encoding="utf-8"?>
<!-- Generator: Adobe Illustrator 16.0.0, SVG Export Plug-In . SVG Version: 6.00 Build 0)  -->
<!DOCTYPE svg PUBLIC "-//W3C//DTD SVG 1.1//EN" "http://www.w3.org/Graphics/SVG/1.1/DTD/svg11.dtd">
<svg version="1.1" id="kc-aircraft" xmlns="http://www.w3.org/2000/svg" xmlns:xlink="http://www.w3.org/1999/xlink" x="0px"
	 y="0px" width="32px" height="32px" viewBox="0 0 32 32" enable-background="new 0 0 32 32" xml:space="preserve">
<g>
	<g>
		<path d="M6.8,1c0.4,0,1.1,0.3,1.4,0.6l10.5,8.3l0.5,0.4l0.6-0.4l3.3-2L23.2,8l0.5,0L24,8l0,0.2l-0.1,0.5l0.2,0.2l-2,3.3l-0.4,0.6
			l0.4,0.5l8.3,10.5c0.4,0.6,0.7,1.4,0.5,1.5l0,0l0,0c0,0-0.2,0.1-0.4,0.1c-0.3,0-0.6-0.1-1-0.4l-10-8.9l-0.7-0.6l-0.7,0.6L7.9,25
			l-0.5,0.5l0.3,0.7c0.4,1.1,1.1,3,1.1,4.2l-2.7-2.7l-0.4-0.4l-0.6,0.2l-0.8,0.2l0.2-0.8l0.2-0.6l-0.4-0.4l-2.7-2.7
			c1.3,0.1,3.4,0.8,4.2,1.1l0.7,0.3L7,24.1l8.8-10.3l0.6-0.7l-0.6-0.7l-8.9-10C6.2,1.6,6.5,1.2,6.6,1.1l0,0l0,0C6.7,1,6.7,1,6.8,1
			 M6.8,0C6.5,0,6.2,0.1,6,0.3c0,0-1.2,1,0.1,2.8l8.9,10L6.2,23.4c0,0-2.9-1.2-4.7-1.2c-0.1,0-0.3,0-0.4,0c0,0-0.9,0.3-1.1,0.7
			l3.6,3.6l-0.7,2.5l2.5-0.7L9,32c0.4-0.2,0.7-1.1,0.7-1.1c0.2-1.7-1.2-5.1-1.2-5.1L18.8,17l10,8.9c0.6,0.5,1.2,0.6,1.6,0.6
			c0.8,0,1.2-0.5,1.2-0.5c0.9-0.9-0.4-2.8-0.4-2.8l-8.3-10.5L25,9.2l1.3,1.3l0.4-0.4L25,8.4l0.2-1.5L23.6,7l-1.7-1.7l-0.4,0.4
			L22.8,7l-3.5,2.1L8.8,0.8C8.8,0.8,7.7,0,6.8,0L6.8,0z"/>
	</g>
</g>
</svg>
