<?xml version="1.0" encoding="utf-8"?>
<!-- Generator: Adobe Illustrator 16.0.0, SVG Export Plug-In . SVG Version: 6.00 Build 0)  -->
<!DOCTYPE svg PUBLIC "-//W3C//DTD SVG 1.1//EN" "http://www.w3.org/Graphics/SVG/1.1/DTD/svg11.dtd">
<svg version="1.1" id="kc-asw" xmlns="http://www.w3.org/2000/svg" xmlns:xlink="http://www.w3.org/1999/xlink" x="0px" y="0px"
	 width="32px" height="32px" viewBox="0 0 32 32" enable-background="new 0 0 32 32" xml:space="preserve">
<g display="none">
	<path display="inline" d="M16,4.1c0,0-8.4,7.6-8.4,14.2c0,4.6,3.8,8.4,8.4,8.4c4.6,0,8.4-3.8,8.4-8.4C24.4,11.7,16,4.1,16,4.1z
		 M8.6,18.3c0-3,2-6.3,3.9-8.8c-1.5,2.4-3,5.5-3,8.3c0,4.2,3.3,7.6,7.3,7.6c1,0,2-0.2,2.9-0.6c-1.1,0.6-2.3,1-3.7,1
		C11.9,25.7,8.6,22.4,8.6,18.3z"/>
</g>
<g>
	<path d="M16,2c0,0-8.4,7.6-8.4,14.2c0,4.6,3.8,8.4,8.4,8.4c4.6,0,8.4-3.8,8.4-8.4C24.4,9.6,16,2,16,2z M8.6,16.2
		c0-3.4,2.6-7.3,4.8-10c-1.6,2.6-3.4,6.2-3.4,9.5c0,4.1,2.8,7.5,6.3,7.8c-0.1,0-0.2,0-0.3,0C11.9,23.6,8.6,20.3,8.6,16.2z"/>
</g>
<path d="M24.8,19.6c-0.1,0.3-0.3,0.6-0.4,0.9c2.4,0.8,3.8,1.7,3.8,2.4c0,1.2-4.6,3.5-12.1,3.5S3.9,24.2,3.9,22.9
	c0-0.7,1.4-1.6,3.8-2.4c-0.2-0.3-0.3-0.6-0.4-0.9c-2.6,0.8-4.4,2-4.4,3.3c0,2.4,6.1,4.5,13.1,4.5s13.1-2.1,13.1-4.5
	C29.1,21.7,27.4,20.5,24.8,19.6z"/>
<path d="M25.3,17.3c0,0.3-0.1,0.7-0.2,1c3.6,1.2,5.8,3,5.8,4.7c0,2.8-6.1,6-15,6c-8.8,0-15-3.2-15-6c0-1.7,2.2-3.5,5.8-4.7
	c-0.1-0.3-0.1-0.7-0.2-1C2.6,18.6,0,20.6,0,23c0,3.9,7.2,7,16,7c8.8,0,16-3.1,16-7C32,20.6,29.4,18.6,25.3,17.3z"/>
</svg>
