<?xml version="1.0" encoding="utf-8"?>
<!-- Generator: Adobe Illustrator 16.0.0, SVG Export Plug-In . SVG Version: 6.00 Build 0)  -->
<!DOCTYPE svg PUBLIC "-//W3C//DTD SVG 1.1//EN" "http://www.w3.org/Graphics/SVG/1.1/DTD/svg11.dtd">
<svg version="1.1" id="kc-aa" xmlns="http://www.w3.org/2000/svg" xmlns:xlink="http://www.w3.org/1999/xlink" x="0px" y="0px"
	 width="32px" height="32px" viewBox="0 0 32 32" enable-background="new 0 0 32 32" xml:space="preserve">
<path d="M31.8,12.2c-2.2-3-6.5-4.9-11.2-4.9c-4.4,0-8.3,1.6-10.6,4.2L1.6,5.7L0,8.1l8.5,5.8C8.2,14.7,8,15.5,8,16.3H4v10h28V12.4
	L31.8,12.2z M31,13.4v2.9H15.4c0.5-4.1,4-7.4,8.2-7.4C26.8,8.9,29.6,10.6,31,13.4z M1.4,7.9l0.5-0.8l8.3,5.6
	c1.9-2.7,5.8-4.5,10.4-4.5c0.2,0,0.4,0,0.5,0c-3.6,1-6.3,4.2-6.7,8H9c0-1,0.3-1.9,0.7-2.7L1.4,7.9z M5,25.3v-6h26v6H5z M31,18.3H5
	v-1h26V18.3z"/>
</svg>
