<?xml version="1.0" encoding="utf-8"?>
<!-- Generator: Adobe Illustrator 16.0.0, SVG Export Plug-In . SVG Version: 6.00 Build 0)  -->
<!DOCTYPE svg PUBLIC "-//W3C//DTD SVG 1.1//EN" "http://www.w3.org/Graphics/SVG/1.1/DTD/svg11.dtd">
<svg version="1.1" id="kc-gun" xmlns="http://www.w3.org/2000/svg" xmlns:xlink="http://www.w3.org/1999/xlink" x="0px" y="0px"
	 width="32px" height="32px" viewBox="0 0 32 32" enable-background="new 0 0 32 32" xml:space="preserve">
<path d="M26.8,17.5v-2c0-1.4-1-2.7-2.3-3L32,6.3L29.2,3L28,4l-2.1-2.5l-13.1,11H5c-1.7,0-3,1.3-3,3v2H0v4h3v9h22.8v-9h3v-4H26.8z
	 M27.8,20.5h-3v9H4v-9H1v-2h2v-3c0-1.1,0.9-2,2-2h8.2L25.8,2.9l1.5,1.8l-10.5,8.8h1.6l10.8-9.1l1.5,1.8l-8.8,7.3h2c1.1,0,2,0.9,2,2
	v3h0h2"/>
</svg>
