<?xml version="1.0" encoding="utf-8"?>
<!-- Generator: Adobe Illustrator 16.0.0, SVG Export Plug-In . SVG Version: 6.00 Build 0)  -->
<!DOCTYPE svg PUBLIC "-//W3C//DTD SVG 1.1//EN" "http://www.w3.org/Graphics/SVG/1.1/DTD/svg11.dtd">
<svg version="1.1" id="kc-hp" xmlns="http://www.w3.org/2000/svg" xmlns:xlink="http://www.w3.org/1999/xlink" x="0px" y="0px"
	 width="32px" height="32px" viewBox="0 0 32 32" enable-background="new 0 0 32 32" xml:space="preserve">
<g id="hp-inner">
	<path d="M22.6,3.9c-2.9,0-5.4,2.2-6.6,4.5c-1.2-2.3-3.7-4.5-6.6-4.5c-4,0-7.3,3.1-7.3,6.8c0,2.1,0.6,3.7,1.6,5.2l0,0c0,0,0,0,0,0
		c2.2,3.3,6.3,5.6,9.9,9.4c0.1,0.1,0.1,0.1,0.2,0.2c0.3,0.3,0.6,0.6,0.8,0.9c0.1,0.1,0.2,0.2,0.3,0.3c0.3,0.4,0.7,0.8,1,1.2
		c0.3-0.4,0.6-0.8,0.9-1.2c0.1-0.1,0.2-0.2,0.3-0.3c0.3-0.3,0.5-0.6,0.8-0.9c0.1-0.1,0.1-0.1,0.2-0.2c5.2-5.5,11.6-8.1,11.6-14.6
		C29.8,6.9,26.6,3.9,22.6,3.9z M3.3,10.7C3.3,7.6,6,5,9.4,5c2.5,0,4.6,2,5.6,3.9l1,2l1-2C17.9,7,20.1,5,22.6,5
		c3.4,0,6.2,2.6,6.2,5.7c0,2.1-0.8,3.7-2,5.2H5.1C4,14.5,3.3,12.8,3.3,10.7z"/>
</g>
<g id="hp-outer">
	<path d="M22.6,2.8c4.6,0,8.3,3.6,8.3,7.9c0,5-3.5,7.9-7.2,11c-2.4,2-4.8,4-6.8,6.9L16,29.9l-0.9-1.2c-2.1-2.8-4.5-4.8-6.8-6.7
		c-3.7-3.1-7.2-6-7.2-11.2c0-4.4,3.7-7.9,8.3-7.9c2.7,0,5.1,1.6,6.6,3.6C17.5,4.4,19.8,2.8,22.6,2.8 M22.6,1.7c-2.4,0-4.7,1.1-6.6,3
		c-1.8-1.9-4.2-3-6.6-3c-5.2,0-9.4,4-9.4,9c0,5.8,3.9,9,7.6,12c2.3,1.9,4.6,3.8,6.6,6.5l0.9,1.2l0.9,1.2l0.9-1.2l0.9-1.2
		c1.9-2.7,4.3-4.7,6.6-6.7c3.7-3.1,7.6-6.3,7.6-11.8C32,5.8,27.8,1.7,22.6,1.7L22.6,1.7z"/>
</g>
</svg>
