<?xml version="1.0" encoding="utf-8"?>
<!-- Generator: Adobe Illustrator 16.0.0, SVG Export Plug-In . SVG Version: 6.00 Build 0)  -->
<!DOCTYPE svg PUBLIC "-//W3C//DTD SVG 1.1//EN" "http://www.w3.org/Graphics/SVG/1.1/DTD/svg11.dtd">
<svg version="1.1" id="kc-los" xmlns="http://www.w3.org/2000/svg" xmlns:xlink="http://www.w3.org/1999/xlink" x="0px" y="0px"
	 width="32px" height="32px" viewBox="0 0 32 32" enable-background="new 0 0 32 32" xml:space="preserve">
<g>
	<path d="M15.9,8.5c7.2,0,13,5.5,14.8,7.5c-1.8,1.9-7.6,7.5-14.8,7.5c-7.7,0-13-5.6-14.5-7.5C2.9,14.1,8.2,8.5,15.9,8.5 M15.9,7.5
		C6.1,7.5,0,16,0,16s6,8.5,15.9,8.5C25,24.5,32,16,32,16S25.1,7.5,15.9,7.5L15.9,7.5z"/>
</g>
<g>
	<path d="M16,13.5c1.4,0,2.5,1.1,2.5,2.5c0,1.4-1.1,2.5-2.5,2.5s-2.5-1.1-2.5-2.5C13.5,14.6,14.6,13.5,16,13.5 M16,12
		c-2.2,0-4,1.8-4,4c0,2.2,1.8,4,4,4c2.2,0,4-1.8,4-4C20,13.8,18.2,12,16,12L16,12z"/>
</g>
</svg>
