<?xml version="1.0" encoding="utf-8"?>
<!-- Generator: Adobe Illustrator 16.0.0, SVG Export Plug-In . SVG Version: 6.00 Build 0)  -->
<!DOCTYPE svg PUBLIC "-//W3C//DTD SVG 1.1//EN" "http://www.w3.org/Graphics/SVG/1.1/DTD/svg11.dtd">
<svg version="1.1" id="kc-luck" xmlns="http://www.w3.org/2000/svg" xmlns:xlink="http://www.w3.org/1999/xlink" x="0px" y="0px"
	 width="32px" height="32px" viewBox="0 0 32 32" enable-background="new 0 0 32 32" xml:space="preserve">
<g>
	<path d="M10.2,1c1.1,0,2.2,0.4,3,1.2c0.8,0.8,1.3,1.9,1.2,3.1l0,1h0v8.2H6.2v0h-1c-1.1,0-2.2-0.4-3-1.2c-1.7-1.7-1.7-4.3,0-6
		C3,6.6,4,6.1,5.1,6.1L6,6l0-0.9C6,4,6.5,3,7.2,2.2C8,1.4,9.1,1,10.2,1 M10.2,0C8.9,0,7.6,0.5,6.5,1.5C5.6,2.5,5,3.8,5,5.1
		C3.7,5.1,2.5,5.6,1.5,6.6c-2,2-2,5.4,0,7.4c1,1,2.4,1.5,3.7,1.5c0,0,0,0,0,0v0h10.2V5.3h0C15.5,4,15,2.6,14,1.5
		C12.9,0.5,11.6,0,10.2,0L10.2,0z"/>
</g>
<g>
	<path d="M26.2,17.5L26.2,17.5l0.5,0l0.1,0c1.1,0,2.2,0.4,3,1.2s1.2,1.9,1.2,3s-0.4,2.2-1.2,3C29,25.5,28,25.9,26.9,26l-0.9,0l0,0.9
		c0,1.1-0.5,2.1-1.2,2.8c-0.8,0.8-1.9,1.2-3,1.2s-2.2-0.4-3-1.2c-0.8-0.8-1.2-1.9-1.2-3l0-1h0v-8.2H26.2 M26.6,16.5H16.4v10.2h0
		c0,1.3,0.5,2.7,1.5,3.7c1,1,2.4,1.5,3.7,1.5c1.3,0,2.7-0.5,3.7-1.5c1-1,1.5-2.2,1.5-3.5c1.3,0,2.6-0.5,3.6-1.5c2-2,2-5.4,0-7.4
		c-1-1-2.4-1.5-3.7-1.5C26.7,16.5,26.7,16.5,26.6,16.5L26.6,16.5L26.6,16.5z"/>
</g>
<g>
	<path d="M21.7,1c1.1,0,2.2,0.4,3,1.2C25.4,3,25.8,4,25.9,5.1l0,0.9l0.9,0c1.1,0,2.1,0.5,2.9,1.2c0.8,0.8,1.2,1.9,1.2,3
		c0,1.1-0.4,2.2-1.2,3s-1.9,1.2-3,1.2l-0.1,0l-0.5,0l0,0h-8.7V6.3h0l0-1c0-1.1,0.4-2.2,1.2-3C19.5,1.5,20.5,1,21.7,1 M21.7,0
		C20.3,0,19,0.5,18,1.6c-1,1-1.5,2.4-1.5,3.7h0v10.2h10.2l0,0c0,0,0.1,0,0.1,0c1.3,0,2.7-0.5,3.7-1.5c2-2,2-5.4,0-7.4
		c-1-1-2.3-1.5-3.6-1.5c-0.1-1.3-0.6-2.5-1.5-3.5C24.3,0.5,23,0,21.7,0L21.7,0z"/>
</g>
<g>
	<path d="M14.5,17.4v8.2h0l0,1c0,1.2-0.4,2.3-1.2,3.1c-0.8,0.8-1.9,1.2-3,1.2c-1.1,0-2.2-0.4-3-1.2C6.5,29,6,28,6,26.9L6,26l-0.9,0
		c-1.1,0-2.1-0.5-2.8-1.2c-1.7-1.7-1.7-4.3,0-6c0.8-0.8,1.9-1.2,3-1.2l1,0v0H14.5 M15.5,16.4H5.3v0c0,0,0,0,0,0
		c-1.3,0-2.7,0.5-3.7,1.5c-2,2-2,5.4,0,7.4c1,1,2.2,1.5,3.5,1.5c0,1.3,0.5,2.6,1.5,3.6c1,1,2.4,1.5,3.7,1.5s2.7-0.5,3.7-1.5
		c1.1-1.1,1.6-2.4,1.5-3.8h0V16.4L15.5,16.4z"/>
</g>
</svg>
