<?xml version="1.0" encoding="utf-8"?>
<!-- Generator: Adobe Illustrator 16.0.0, SVG Export Plug-In . SVG Version: 6.00 Build 0)  -->
<!DOCTYPE svg PUBLIC "-//W3C//DTD SVG 1.1//EN" "http://www.w3.org/Graphics/SVG/1.1/DTD/svg11.dtd">
<svg version="1.1" id="kc-range" xmlns="http://www.w3.org/2000/svg" xmlns:xlink="http://www.w3.org/1999/xlink" x="0px" y="0px"
	 width="32px" height="32px" viewBox="0 0 32 32" enable-background="new 0 0 32 32" xml:space="preserve">
<g>
	<path d="M15.2,1c0.8,0,1.5,0.6,1.6,1.5c0,0.4-0.1,0.9-0.4,1.2c-0.3,0.3-0.7,0.5-1.1,0.6c0,0-0.1,0-0.1,0c0,0,0,0-0.1,0
		c-0.8,0-1.5-0.6-1.6-1.5c0-0.4,0.1-0.9,0.4-1.2C14.2,1.3,14.6,1.1,15,1C15,1,15.1,1,15.2,1 M20.5,1.5L20.5,1.5c0.2,0,0.3,0,0.5,0.1
		c0.9,0.2,1.4,1.2,1.1,2c-0.2,0.7-0.8,1.2-1.6,1.2c-0.2,0-0.3,0-0.5-0.1c-0.9-0.2-1.4-1.2-1.1-2C19.1,2,19.7,1.5,20.5,1.5 M10,2.5
		L10,2.5c0.6,0,1.2,0.3,1.4,0.9c0.2,0.4,0.2,0.8,0.1,1.2c-0.1,0.4-0.4,0.8-0.8,1c-0.2,0.1-0.5,0.2-0.7,0.2c-0.6,0-1.1-0.3-1.4-0.9
		C8.4,4.5,8.4,4.1,8.5,3.7c0.1-0.4,0.4-0.8,0.8-1C9.5,2.6,9.8,2.5,10,2.5 M25.2,3.9L25.2,3.9c0.4,0,0.7,0.1,1,0.3
		c0.7,0.6,0.8,1.6,0.3,2.3c-0.3,0.4-0.8,0.6-1.3,0.6c-0.4,0-0.7-0.1-1-0.4c-0.3-0.3-0.6-0.6-0.6-1.1c-0.1-0.4,0.1-0.9,0.3-1.2
		C24.2,4.1,24.7,3.9,25.2,3.9 M5.9,5.9L5.9,5.9c0.4,0,0.7,0.1,1,0.4c0.7,0.6,0.8,1.6,0.2,2.3C6.8,8.9,6.4,9.1,5.9,9.1
		c-0.4,0-0.7-0.1-1-0.4C4.5,8.5,4.3,8.1,4.3,7.6c0-0.4,0.1-0.8,0.4-1.2C5,6.1,5.4,5.9,5.9,5.9 M3.3,10.5L3.3,10.5
		c0.2,0,0.3,0,0.5,0.1c0.4,0.1,0.7,0.4,0.9,0.8c0.2,0.4,0.2,0.8,0.1,1.2c-0.2,0.7-0.8,1.1-1.5,1.1c-0.2,0-0.3,0-0.5-0.1
		c-0.9-0.3-1.3-1.2-1-2C2,11,2.6,10.5,3.3,10.5 M2.6,15.8c0.8,0,1.6,0.7,1.6,1.5c0.1,0.9-0.6,1.6-1.5,1.7H2.6
		c-0.9,0-1.6-0.7-1.6-1.5c0-0.4,0.1-0.8,0.4-1.2c0.3-0.3,0.7-0.5,1.1-0.6C2.6,15.8,2.6,15.8,2.6,15.8 M15.2,0c-0.1,0-0.2,0-0.3,0
		c-1.4,0.1-2.5,1.4-2.3,2.9c0.1,1.4,1.3,2.4,2.6,2.4c0.1,0,0.2,0,0.3,0c1.4-0.1,2.5-1.4,2.3-2.9C17.6,1,16.5,0,15.2,0L15.2,0z
		 M20.5,0.5c-1.1,0-2.2,0.7-2.5,1.9c-0.4,1.4,0.4,2.8,1.8,3.2c0.2,0.1,0.5,0.1,0.7,0.1c1.1,0,2.2-0.7,2.5-1.9
		c0.4-1.4-0.4-2.8-1.8-3.2C20.9,0.5,20.7,0.5,20.5,0.5L20.5,0.5z M10,1.5c-0.4,0-0.8,0.1-1.2,0.3C7.5,2.5,7,4.1,7.7,5.4
		C8.2,6.3,9.1,6.8,10,6.8c0.4,0,0.8-0.1,1.2-0.3c1.3-0.7,1.8-2.3,1.1-3.5C11.9,2,11,1.5,10,1.5L10,1.5z M25.2,2.9
		c-0.8,0-1.5,0.3-2.1,1c-0.9,1.1-0.7,2.8,0.4,3.7c0.5,0.4,1,0.6,1.6,0.6c0.8,0,1.5-0.3,2.1-1C28.2,6,28,4.4,26.8,3.5
		C26.3,3.1,25.8,2.9,25.2,2.9L25.2,2.9z M5.9,4.9c-0.7,0-1.5,0.3-2,0.9C2.9,6.9,3.1,8.6,4.2,9.5c0.5,0.4,1.1,0.6,1.7,0.6
		c0.7,0,1.5-0.3,2-0.9c0.9-1.1,0.8-2.8-0.3-3.7C7.1,5.1,6.5,4.9,5.9,4.9L5.9,4.9z M3.3,9.5c-1.1,0-2.1,0.7-2.5,1.8
		c-0.5,1.4,0.3,2.9,1.7,3.3c0.3,0.1,0.5,0.1,0.8,0.1c1.1,0,2.1-0.7,2.5-1.8c0.5-1.4-0.3-2.9-1.7-3.3C3.8,9.6,3.6,9.5,3.3,9.5
		L3.3,9.5z M2.6,14.8c-0.1,0-0.1,0-0.2,0C1,14.9-0.1,16.2,0,17.6c0.1,1.4,1.2,2.4,2.6,2.4c0.1,0,0.1,0,0.2,0
		c1.4-0.1,2.5-1.4,2.4-2.8C5.1,15.9,4,14.8,2.6,14.8L2.6,14.8z"/>
</g>
<polygon points="21.3,12.4 23.8,15.8 11,25.2 8.5,21.8 5.3,32 16,32 13.5,28.6 26.3,19.2 28.8,22.6 32,12.4 "/>
</svg>
